<svg width="193" height="32" viewBox="0 0 193 32" fill="none" xmlns="http://www.w3.org/2000/svg">
<path d="M18.0154 19.3938H15.1503H14.44C14.3513 19.3938 14.2726 19.3371 14.2445 19.253L13.645 17.4544L13.8066 15.5151H19.8064C19.8551 15.5151 19.9022 15.5323 19.9394 15.5637L25.3715 20.1533C25.4087 20.1847 25.4558 20.2019 25.5045 20.2019H25.7125C25.8263 20.2019 25.9186 20.1097 25.9186 19.9959V18.3904C25.9186 18.3121 25.963 18.2405 26.0332 18.2058L26.1311 18.1573C26.2009 18.1227 26.2452 18.0518 26.2457 17.974L26.2511 17.1312V15.8475C26.2511 14.9498 26.9788 14.2221 27.8764 14.2221V13.7817C27.8764 13.6679 27.9687 13.5757 28.0825 13.5757H28.4862C28.6 13.5757 28.6922 13.6679 28.6922 13.7817V14.2221C29.5848 14.2221 30.3238 14.9457 30.3238 15.8383H30.9335C31.0473 15.8383 31.1395 15.9305 31.1395 16.0443V16.8617C31.1395 16.9293 31.1727 16.9926 31.2282 17.0311L32.4725 17.8939C32.604 17.9851 32.7847 17.8981 32.7955 17.7384L33.2542 10.9221C33.2582 10.8625 33.2361 10.804 33.1937 10.7619L33.0974 10.6666L32.3379 10.0647C32.3014 10.0358 32.2563 10.0201 32.2099 10.0201H27.7056H25.3622C24.8713 10.0201 24.4733 9.62214 24.4733 9.13122C24.4733 8.6403 24.8713 8.24233 25.3622 8.24233H31.7493C31.8631 8.24233 31.9553 8.15008 31.9553 8.03629V7.31705C31.9553 7.20326 31.8631 7.11102 31.7493 7.11102H24.3464C24.3076 7.11102 24.2696 7.12199 24.2367 7.14267L16.7413 11.8598C16.3813 12.0863 15.9044 11.953 15.7141 11.5725C15.5487 11.2417 15.6609 10.8394 15.9736 10.642L24.0718 5.52772C24.1058 5.50628 24.1452 5.49523 24.1854 5.49592L33.3568 5.65531C33.4003 5.65606 33.4424 5.67058 33.4772 5.69677L40.8738 11.2715C40.9095 11.2985 40.9531 11.313 40.9978 11.313H43.3762L44.0288 12.9292L43.8657 15.1918L38.8879 15.3509C38.8364 15.3525 38.7862 15.3348 38.7471 15.3013L34.299 11.4827C34.1586 11.3621 33.9427 11.4735 33.9597 11.6578L34.729 20.0403H35.0553L40.2615 16.3703C40.5769 16.1479 41.0102 16.2045 41.2579 16.5006C41.5331 16.8295 41.473 17.3225 41.1268 17.5756L35.599 21.6168C35.5638 21.6426 35.5212 21.6565 35.4774 21.6565H34.2824C34.1686 21.6565 34.0763 21.7487 34.0763 21.8625V22.4201C34.0763 22.5339 33.9841 22.6262 33.8703 22.6262H26.7772C26.6634 22.6262 26.5712 22.7184 26.5712 22.8322V23.0666C26.5712 23.1804 26.6634 23.2726 26.7772 23.2726H34.662C34.7055 23.2726 34.7479 23.2589 34.7831 23.2333L41.4233 18.4097C41.7831 18.1484 42.2857 18.223 42.5541 18.5775C42.8275 18.9385 42.7548 19.4529 42.3922 19.7241L35.1101 25.171C35.0745 25.1976 35.0312 25.212 34.9867 25.212H25.5008C25.4544 25.212 25.4093 25.1963 25.3729 25.1675L18.1433 19.4384C18.1069 19.4095 18.0618 19.3938 18.0154 19.3938Z" fill="black" style="fill:black;fill-opacity:1;"/>
<path d="M23.9962 9.84304L23.4219 9.0466C23.358 8.95802 23.2361 8.93467 23.144 8.99337L17.333 12.6974C16.9975 12.9112 16.9099 13.3627 17.1412 13.6865C17.3557 13.9868 17.7677 14.0668 18.0791 13.8686L23.9397 10.1373C24.0396 10.0737 24.0655 9.93913 23.9962 9.84304Z" fill="black" style="fill:black;fill-opacity:1;"/>
<path d="M18.0154 19.3938H15.1503H14.44C14.3513 19.3938 14.2726 19.3371 14.2445 19.253L13.645 17.4544L13.8066 15.5151H19.8064C19.8551 15.5151 19.9022 15.5323 19.9394 15.5637L25.3715 20.1533C25.4087 20.1847 25.4558 20.2019 25.5045 20.2019H25.7125C25.8263 20.2019 25.9186 20.1097 25.9186 19.9959V18.3904C25.9186 18.3121 25.963 18.2405 26.0332 18.2058L26.1311 18.1573C26.2009 18.1227 26.2452 18.0518 26.2457 17.974L26.2511 17.1312V15.8475C26.2511 14.9498 26.9788 14.2221 27.8764 14.2221V13.7817C27.8764 13.6679 27.9687 13.5757 28.0825 13.5757H28.4862C28.6 13.5757 28.6922 13.6679 28.6922 13.7817V14.2221C29.5848 14.2221 30.3238 14.9457 30.3238 15.8383H30.9335C31.0473 15.8383 31.1395 15.9305 31.1395 16.0443V16.8617C31.1395 16.9293 31.1727 16.9926 31.2282 17.0311L32.4725 17.8939C32.604 17.9851 32.7847 17.8981 32.7955 17.7384L33.2542 10.9221C33.2582 10.8625 33.2361 10.804 33.1937 10.7619L33.0974 10.6666L32.3379 10.0647C32.3014 10.0358 32.2563 10.0201 32.2099 10.0201H27.7056H25.3622C24.8713 10.0201 24.4733 9.62214 24.4733 9.13122C24.4733 8.6403 24.8713 8.24233 25.3622 8.24233H31.7493C31.8631 8.24233 31.9553 8.15008 31.9553 8.03629V7.31705C31.9553 7.20326 31.8631 7.11102 31.7493 7.11102H24.3464C24.3076 7.11102 24.2696 7.12199 24.2367 7.14267L16.7413 11.8598C16.3813 12.0863 15.9044 11.953 15.7141 11.5725C15.5487 11.2417 15.6609 10.8394 15.9736 10.642L24.0718 5.52772C24.1058 5.50628 24.1452 5.49523 24.1854 5.49592L33.3568 5.65531C33.4003 5.65606 33.4424 5.67058 33.4772 5.69677L40.8738 11.2715C40.9095 11.2985 40.9531 11.313 40.9978 11.313H43.3762L44.0288 12.9292L43.8657 15.1918L38.8879 15.3509C38.8364 15.3525 38.7862 15.3348 38.7471 15.3013L34.299 11.4827C34.1586 11.3621 33.9427 11.4735 33.9597 11.6578L34.729 20.0403H35.0553L40.2615 16.3703C40.5769 16.1479 41.0102 16.2045 41.2579 16.5006C41.5331 16.8295 41.473 17.3225 41.1268 17.5756L35.599 21.6168C35.5638 21.6426 35.5212 21.6565 35.4774 21.6565H34.2824C34.1686 21.6565 34.0763 21.7487 34.0763 21.8625V22.4201C34.0763 22.5339 33.9841 22.6262 33.8703 22.6262H26.7772C26.6634 22.6262 26.5712 22.7184 26.5712 22.8322V23.0666C26.5712 23.1804 26.6634 23.2726 26.7772 23.2726H34.662C34.7055 23.2726 34.7479 23.2589 34.7831 23.2333L41.4233 18.4097C41.7831 18.1484 42.2857 18.223 42.5541 18.5775C42.8275 18.9385 42.7548 19.4529 42.3922 19.7241L35.1101 25.171C35.0745 25.1976 35.0312 25.212 34.9867 25.212H25.5008C25.4544 25.212 25.4093 25.1963 25.3729 25.1675L18.1433 19.4384C18.1069 19.4095 18.0618 19.3938 18.0154 19.3938Z" stroke="black" style="stroke:black;stroke-opacity:1;" stroke-width="0.206036"/>
<path d="M23.9962 9.84304L23.4219 9.0466C23.358 8.95802 23.2361 8.93467 23.144 8.99337L17.333 12.6974C16.9975 12.9112 16.9099 13.3627 17.1412 13.6865C17.3557 13.9868 17.7677 14.0668 18.0791 13.8686L23.9397 10.1373C24.0396 10.0737 24.0655 9.93913 23.9962 9.84304Z" stroke="black" style="stroke:black;stroke-opacity:1;" stroke-width="0.206036"/>
<path d="M29 0.412109C37.609 0.412109 44.5879 7.39102 44.5879 16C44.5879 24.609 37.609 31.5879 29 31.5879C20.391 31.5879 13.4121 24.609 13.4121 16C13.4121 7.39102 20.391 0.412109 29 0.412109Z" stroke="black" style="stroke:black;stroke-opacity:1;" stroke-width="0.824142"/>
<path d="M56.9792 23V9.42216H59.5784L65.3587 19.0042H63.9815L69.6648 9.42216H72.2446L72.2834 23H69.335L69.3156 13.9416H69.8588L65.3199 21.5646H63.9039L59.268 13.9416H59.9275V23H56.9792ZM81.5372 23.2328C79.6105 23.2328 78.104 22.6961 77.0177 21.6228C75.9315 20.5495 75.3884 19.0172 75.3884 17.0258V9.42216H78.5307V16.9094C78.5307 18.2025 78.7958 19.1335 79.326 19.7025C79.8562 20.2715 80.5997 20.556 81.5566 20.556C82.5135 20.556 83.2571 20.2715 83.7873 19.7025C84.3174 19.1335 84.5825 18.2025 84.5825 16.9094V9.42216H87.686V17.0258C87.686 19.0172 87.1429 20.5495 86.0567 21.6228C84.9705 22.6961 83.464 23.2328 81.5372 23.2328ZM90.7912 23V9.42216H93.9335V20.4396H100.742V23H90.7912ZM104.041 23V11.9826H99.6961V9.42216H111.528V11.9826H107.183V23H104.041ZM113.219 23V9.42216H116.361V23H113.219ZM118.982 18.7521V16.3275H124.472V18.7521H118.982ZM129.158 23V11.9826H124.814V9.42216H136.646V11.9826H132.301V23H129.158ZM141.227 14.8921H147.763V17.3361H141.227V14.8921ZM141.459 20.4784H148.849V23H138.336V9.42216H148.597V11.9438H141.459V20.4784ZM157.848 23.2328C156.8 23.2328 155.824 23.0647 154.919 22.7284C154.027 22.3793 153.251 21.8879 152.591 21.2543C151.932 20.6206 151.414 19.8771 151.039 19.0236C150.677 18.1702 150.496 17.2327 150.496 16.2111C150.496 15.1895 150.677 14.252 151.039 13.3985C151.414 12.5451 151.932 11.8015 152.591 11.1679C153.264 10.5343 154.046 10.0493 154.938 9.71311C155.83 9.36397 156.807 9.1894 157.867 9.1894C159.044 9.1894 160.104 9.3963 161.048 9.8101C162.005 10.211 162.807 10.8058 163.453 11.5946L161.436 13.4567C160.971 12.9265 160.453 12.5321 159.884 12.2735C159.315 12.002 158.695 11.8662 158.022 11.8662C157.389 11.8662 156.807 11.9696 156.277 12.1765C155.746 12.3834 155.287 12.6808 154.899 13.0688C154.511 13.4567 154.208 13.9158 153.988 14.446C153.781 14.9761 153.677 15.5645 153.677 16.2111C153.677 16.8576 153.781 17.446 153.988 17.9762C154.208 18.5064 154.511 18.9654 154.899 19.3534C155.287 19.7413 155.746 20.0387 156.277 20.2456C156.807 20.4525 157.389 20.556 158.022 20.556C158.695 20.556 159.315 20.4267 159.884 20.1681C160.453 19.8965 160.971 19.4892 161.436 18.946L163.453 20.8081C162.807 21.597 162.005 22.1983 161.048 22.6121C160.104 23.0259 159.037 23.2328 157.848 23.2328ZM174.886 9.42216H178.028V23H174.886V9.42216ZM168.718 23H165.575V9.42216H168.718V23ZM175.119 17.4331H168.485V14.7757H175.119V17.4331Z" fill="black" style="fill:black;fill-opacity:1;"/>
</svg>
